HIERARCHY
ROOT joint_0
{
	OFFSET 0.000000 0.000000 0.000000
	CHANNELS 6 Xposition Yposition Zposition Zrotation Yrotation Xrotation 
	JOINT joint_1
	{
		OFFSET 6.579712 -2.778931 100.531982
		CHANNELS 3 Zrotation Yrotation Xrotation
		JOINT joint_2
		{
			OFFSET -3.313232 -1.302856 91.974976
			CHANNELS 3 Zrotation Yrotation Xrotation
			JOINT joint_3
			{
				OFFSET -3.421509 -1.641846 91.864014
				CHANNELS 3 Zrotation Yrotation Xrotation
				JOINT joint_4
				{
					OFFSET 7.697388 -4.642578 123.278931
					CHANNELS 3 Zrotation Yrotation Xrotation
					JOINT joint_5
					{
						OFFSET 24.842529 -5.941528 79.695068
						CHANNELS 3 Zrotation Yrotation Xrotation
						End Site
						{
							OFFSET 0.000000 0.000000 0.000000
						}
					}
				}
				JOINT joint_6
				{
					OFFSET -0.159668 -29.112976 68.364014
					CHANNELS 3 Zrotation Yrotation Xrotation
					JOINT joint_7
					{
						OFFSET -18.356079 -115.987061 -20.069092
						CHANNELS 3 Zrotation Yrotation Xrotation
						JOINT joint_8
						{
							OFFSET 31.719482 -11.733276 -267.170898
							CHANNELS 3 Zrotation Yrotation Xrotation
							JOINT joint_9
							{
								OFFSET 29.329956 -5.879517 -234.654053
								CHANNELS 3 Zrotation Yrotation Xrotation
								End Site
								{
									OFFSET 0.000000 0.000000 0.000000
								}
							}
						}
					}
				}
				JOINT joint_10
				{
					OFFSET 8.802979 23.897949 69.798950
					CHANNELS 3 Zrotation Yrotation Xrotation
					JOINT joint_11
					{
						OFFSET 21.159058 115.524292 -19.981934
						CHANNELS 3 Zrotation Yrotation Xrotation
						JOINT joint_12
						{
							OFFSET 18.809204 5.403442 -268.593018
							CHANNELS 3 Zrotation Yrotation Xrotation
							JOINT joint_13
							{
								OFFSET 20.807861 0.421265 -235.639038
								CHANNELS 3 Zrotation Yrotation Xrotation
								End Site
								{
									OFFSET 0.000000 0.000000 0.000000
								}
							}
						}
					}
				}
			}
		}
	}
	JOINT joint_14
	{
		OFFSET -9.713379 -79.513916 -99.348022
		CHANNELS 3 Zrotation Yrotation Xrotation
		JOINT joint_15
		{
			OFFSET -40.607788 -6.518372 -502.938019
			CHANNELS 3 Zrotation Yrotation Xrotation
			JOINT joint_16
			{
				OFFSET -19.807617 -7.437378 -399.590012
				CHANNELS 3 Zrotation Yrotation Xrotation
				JOINT joint_17
				{
					OFFSET 171.701660 -44.751282 -77.782000
					CHANNELS 3 Zrotation Yrotation Xrotation
					End Site
					{
						OFFSET 0.000000 0.000000 0.000000
					}
				}
			}
		}
	}
	JOINT joint_18
	{
		OFFSET 17.854858 79.618652 -98.128052
		CHANNELS 3 Zrotation Yrotation Xrotation
		JOINT joint_19
		{
			OFFSET -24.848877 16.861816 -503.722992
			CHANNELS 3 Zrotation Yrotation Xrotation
			JOINT joint_20
			{
				OFFSET -30.162476 14.470093 -398.750008
				CHANNELS 3 Zrotation Yrotation Xrotation
				JOINT joint_21
				{
					OFFSET 176.096680 -10.987549 -80.021000
					CHANNELS 3 Zrotation Yrotation Xrotation
					End Site
					{
						OFFSET 0.000000 0.000000 0.000000
					}
				}
			}
		}
	}
}
MOTION
Frames: 12
Frame Time: 0.016667
-2464.350586 921.842896 1096.937988 6.011148 0.101190 -0.692582 -0.629318 -2.239371 -0.187051 -0.578645 0.359861 -0.035059 -0.592666 -0.453000 -0.032229 -1.021052 -0.364536 3.151179 0.000000 0.000000 0.000000 1.844754 2.651335 -0.040996 -0.169019 2.971092 0.155975 -0.196779 -1.771416 -1.876976 0.000000 0.000000 0.000000 -2.319383 1.652384 0.181916 0.029390 2.349937 -1.410141 0.203122 -2.747730 2.484547 0.000000 0.000000 0.000000 -0.326286 -0.243921 -0.570028 -0.606448 2.217456 2.522238 -0.311539 -3.173320 -0.968029 0.000000 0.000000 0.000000 1.677236 0.433773 1.835386 1.788221 0.126279 -0.456950 1.654801 -1.156471 0.679302 0.000000 0.000000 0.000000 
-2464.398682 921.566833 1096.910034 6.018651 0.084522 -0.696377 -0.628582 -2.241252 -0.176315 -0.578286 0.359064 -0.036448 -0.592166 -0.451670 -0.030837 -1.022934 -0.349505 3.160673 0.000000 0.000000 0.000000 1.833837 2.646472 -0.026284 -0.175499 2.976045 0.103856 -0.195030 -1.781002 -1.865182 0.000000 0.000000 0.000000 -2.320766 1.657717 0.154607 0.032221 2.342956 -1.366306 0.202820 -2.735997 2.480437 0.000000 0.000000 0.000000 -0.333239 -0.219684 -0.553366 -0.611972 2.195840 2.527638 -0.317635 -3.158789 -0.966999 0.000000 0.000000 0.000000 1.672036 0.428499 1.861139 1.786116 0.162162 -0.462025 1.651108 -1.157194 0.677564 0.000000 0.000000 0.000000 
-2464.441162 921.306396 1096.880005 6.025707 0.066883 -0.699797 -0.629146 -2.242508 -0.162603 -0.579423 0.358726 -0.040133 -0.593008 -0.448676 -0.028225 -1.024252 -0.337527 3.167685 0.000000 0.000000 0.000000 1.825134 2.640665 -0.011831 -0.182290 2.980838 0.049264 -0.193273 -1.791513 -1.853469 0.000000 0.000000 0.000000 -2.319223 1.661642 0.125824 0.034995 2.333907 -1.323156 0.202585 -2.724949 2.477077 0.000000 0.000000 0.000000 -0.339855 -0.194043 -0.538093 -0.617241 2.174273 2.532920 -0.323494 -3.144044 -0.965805 0.000000 0.000000 0.000000 1.667076 0.424628 1.885344 1.784114 0.198588 -0.466583 1.647512 -1.158867 0.675812 0.000000 0.000000 0.000000 
-2464.482666 921.065125 1096.845947 6.032142 0.047093 -0.702419 -0.631511 -2.237895 -0.146116 -0.582604 0.356353 -0.043729 -0.595830 -0.444352 -0.025348 -1.024994 -0.328345 3.172263 0.000000 0.000000 0.000000 1.820124 2.633652 0.001614 -0.189599 2.985595 -0.009128 -0.191428 -1.805460 -1.841639 0.000000 0.000000 0.000000 -2.311482 1.663471 0.094714 0.037589 2.321534 -1.281648 0.202479 -2.712775 2.475113 0.000000 0.000000 0.000000 -0.345944 -0.165390 -0.525073 -0.622115 2.151742 2.538227 -0.328981 -3.129465 -0.964487 0.000000 0.000000 0.000000 1.662404 0.423183 1.907288 1.782198 0.235637 -0.470725 1.643992 -1.161288 0.674049 0.000000 0.000000 0.000000 
-2464.519531 920.839417 1096.808960 6.036978 0.025952 -0.704701 -0.634625 -2.231048 -0.127223 -0.586717 0.353635 -0.048625 -0.599466 -0.439506 -0.021040 -1.024749 -0.320428 3.173456 0.000000 0.000000 0.000000 1.816590 2.626171 0.013731 -0.197157 2.990297 -0.069581 -0.189511 -1.819915 -1.829331 0.000000 0.000000 0.000000 -2.300684 1.664165 0.061452 0.040134 2.307129 -1.240317 0.202338 -2.700839 2.472676 0.000000 0.000000 0.000000 -0.351322 -0.135136 -0.513385 -0.626352 2.129458 2.543367 -0.333828 -3.115592 -0.963063 0.000000 0.000000 0.000000 1.658461 0.423696 1.927742 1.780856 0.272888 -0.474548 1.641018 -1.164776 0.672469 0.000000 0.000000 0.000000 
-2464.555420 920.622803 1096.774048 6.040339 0.004452 -0.707183 -0.636996 -2.225361 -0.107357 -0.590059 0.352875 -0.053425 -0.602437 -0.435920 -0.018059 -1.024712 -0.313110 3.175153 0.000000 0.000000 0.000000 1.811996 2.619187 0.027745 -0.204780 2.995703 -0.130526 -0.187751 -1.832443 -1.817898 0.000000 0.000000 0.000000 -2.292712 1.663953 0.030087 0.042692 2.292617 -1.198783 0.201923 -2.690731 2.467036 0.000000 0.000000 0.000000 -0.355986 -0.106138 -0.502791 -0.630127 2.110632 2.549859 -0.338047 -3.102083 -0.961450 0.000000 0.000000 0.000000 1.655316 0.424351 1.947773 1.780293 0.311152 -0.477848 1.638807 -1.168381 0.671227 0.000000 0.000000 0.000000 
-2464.592773 920.412109 1096.739990 6.040761 -0.018510 -0.710212 -0.638427 -2.219610 -0.088276 -0.592340 0.353131 -0.056308 -0.604478 -0.433471 -0.015709 -1.023876 -0.306865 3.174046 0.000000 0.000000 0.000000 1.806687 2.612566 0.041377 -0.212158 3.001048 -0.190218 -0.186108 -1.840624 -1.806656 0.000000 0.000000 0.000000 -2.286620 1.663077 0.001289 0.045296 2.278032 -1.156093 0.200923 -2.683444 2.454578 0.000000 0.000000 0.000000 -0.359700 -0.078525 -0.493046 -0.633274 2.097409 2.558442 -0.341333 -3.090628 -0.959952 0.000000 0.000000 0.000000 1.653606 0.425802 1.967797 1.781179 0.351892 -0.480400 1.637909 -1.174141 0.670447 0.000000 0.000000 0.000000 
-2464.631104 920.209351 1096.708008 6.039505 -0.041774 -0.713436 -0.638731 -2.213137 -0.068862 -0.593529 0.352130 -0.059071 -0.605409 -0.430897 -0.013375 -1.023107 -0.299475 3.173421 0.000000 0.000000 0.000000 1.798482 2.606454 0.055917 -0.219532 3.006583 -0.250161 -0.184585 -1.846481 -1.795949 0.000000 0.000000 0.000000 -2.284299 1.661095 -0.026720 0.047929 2.262992 -1.112585 0.199570 -2.677658 2.437951 0.000000 0.000000 0.000000 -0.362522 -0.052478 -0.484287 -0.635760 2.087811 2.568132 -0.343799 -3.079805 -0.958247 0.000000 0.000000 0.000000 1.652740 0.427002 1.987484 1.782930 0.394215 -0.482478 1.637811 -1.180803 0.669973 0.000000 0.000000 0.000000 
-2464.659912 920.015503 1096.676025 6.037941 -0.062639 -0.715660 -0.640010 -2.210074 -0.050230 -0.595620 0.352566 -0.062745 -0.607206 -0.428971 -0.009991 -1.022335 -0.292958 3.172580 0.000000 0.000000 0.000000 1.791574 2.602335 0.069440 -0.226757 3.013773 -0.307704 -0.182959 -1.854688 -1.784834 0.000000 0.000000 0.000000 -2.278672 1.659437 -0.053074 0.050331 2.248739 -1.073283 0.198312 -2.674826 2.422691 0.000000 0.000000 0.000000 -0.365405 -0.027861 -0.476961 -0.638400 2.076713 2.577638 -0.346500 -3.067909 -0.956370 0.000000 0.000000 0.000000 1.652481 0.426890 2.005741 1.785210 0.435063 -0.484862 1.638300 -1.186214 0.669844 0.000000 0.000000 0.000000 
-2464.677002 919.830994 1096.645020 6.036094 -0.079225 -0.716743 -0.641927 -2.210024 -0.032492 -0.598293 0.350551 -0.065837 -0.609604 -0.426000 -0.008073 -1.022462 -0.284423 3.175068 0.000000 0.000000 0.000000 1.783245 2.600871 0.082591 -0.233827 3.022851 -0.362477 -0.181084 -1.867093 -1.772504 0.000000 0.000000 0.000000 -2.270410 1.657930 -0.075094 0.052271 2.236483 -1.042654 0.197439 -2.676226 2.412302 0.000000 0.000000 0.000000 -0.368230 -0.005494 -0.470661 -0.640909 2.061738 2.585548 -0.349325 -3.054034 -0.954031 0.000000 0.000000 0.000000 1.652961 0.423606 2.022819 1.788277 0.474019 -0.488773 1.639543 -1.190439 0.670133 0.000000 0.000000 0.000000 
-2464.685791 919.656250 1096.614014 6.033665 -0.093455 -0.716934 -0.644186 -2.212563 -0.014768 -0.601323 0.349118 -0.070726 -0.612249 -0.423240 -0.004575 -1.022753 -0.276424 3.177952 0.000000 0.000000 0.000000 1.773829 2.601466 0.094152 -0.240669 3.033057 -0.414389 -0.179163 -1.881752 -1.760191 0.000000 0.000000 0.000000 -2.260042 1.656285 -0.095708 0.053959 2.224730 -1.016340 0.196648 -2.680236 2.403096 0.000000 0.000000 0.000000 -0.370917 0.015234 -0.465785 -0.643367 2.045490 2.593121 -0.352181 -3.039272 -0.951476 0.000000 0.000000 0.000000 1.654238 0.418889 2.038388 1.792057 0.511775 -0.492670 1.641549 -1.193892 0.670816 0.000000 0.000000 0.000000 
-2464.692383 919.488770 1096.579956 6.032430 -0.107888 -0.716719 -0.646705 -2.214152 0.002136 -0.604621 0.347010 -0.075998 -0.615114 -0.420400 -0.000536 -1.023117 -0.270962 3.180443 0.000000 0.000000 0.000000 1.765096 2.603458 0.105720 -0.247202 3.044261 -0.463342 -0.177305 -1.895699 -1.748233 0.000000 0.000000 0.000000 -2.251049 1.654722 -0.118347 0.055893 2.212202 -0.985847 0.195580 -2.684942 2.390646 0.000000 0.000000 0.000000 -0.373901 0.036275 -0.462573 -0.646389 2.029514 2.602400 -0.355516 -3.023394 -0.948846 0.000000 0.000000 0.000000 1.655521 0.414637 2.053173 1.795768 0.549028 -0.496514 1.643526 -1.197071 0.671503 0.000000 0.000000 0.000000 
